<svg width="9" height="8" viewBox="0 0 9 8" fill="none" xmlns="http://www.w3.org/2000/svg">
<mask id="mask0_2_1193" style="mask-type:luminance" maskUnits="userSpaceOnUse" x="0" y="0" width="9" height="8">
<path d="M0.939941 0H8.91794V7.978H0.939941V0Z" fill="white"/>
</mask>
<g mask="url(#mask0_2_1193)">
<path d="M3.7998 7.47998L3.16992 6.41992L1.97021 6.1499L2.08984 4.91992L1.27002 3.98999L2.08984 3.06006L1.97021 1.83008L3.16992 1.56006L3.7998 0.5L4.93018 0.97998L6.06006 0.5L6.68994 1.56006L7.89014 1.83008L7.77002 3.06006L8.58008 3.98999L7.77002 4.91992L7.89014 6.1499L6.68994 6.41992L6.06006 7.47998L4.93018 7L3.7998 7.47998ZM4.58008 5.16992L6.45996 3.29004L5.99023 2.81006L4.58008 4.21997L3.85986 3.52002L3.3999 3.98999L4.58008 5.16992Z" fill="#FF009C"/>
</g>
</svg>
